# xmcd
#
# Track frame offsets:
#	150
#	13904
#	30070
#	46753
#	62349
#	80511
#	95805
#	112478
#	126671
#	137884
#	150668
#	165139
#	178868
#	191164
#	205653
#	222830
#
# Disc length: 3169 seconds
#
# Revision: 2
# Processed by: cddbd v1.5.2PL0 Copyright (c) Steve Scherf et al.
# Submitted via: audiograbber 1.83.01
#
DISCID=de0c5f10
DTITLE=Randy Travis - I Told You So - The Ultimate Hits Of - Disc 1
DYEAR=2009
DGENRE=Country
TTITLE0=Diggin' Up Bones
TTITLE1=Forever and Ever, Amen
TTITLE2=I Told You So
TTITLE3=He Walked On Water
TTITLE4=Promises
TTITLE5=Three Wooden Crosses
TTITLE6=Deeper Than The Holler
TTITLE7=On The Other Hand
TTITLE8=Too Gone Too Long
TTITLE9=We're Strangers Again
TTITLE10=Look Heart, No Hands
TTITLE11=1982
TTITLE12=Better Class Of Losers
TTITLE13=I Won't Need You Anymore
TTITLE14=Faith In You
TTITLE15=Love's Alive and Well (Previously Unreleased)
EXTD=
EXTT0=
EXTT1=
EXTT2=
EXTT3=
EXTT4=
EXTT5=
EXTT6=
EXTT7=
EXTT8=
EXTT9=
EXTT10=
EXTT11=
EXTT12=
EXTT13=
EXTT14=
EXTT15=
PLAYORDER=
